<svg width="760" height="180" viewBox="0 0 760 180" fill="none" xmlns="http://www.w3.org/2000/svg">
  <rect width="760" height="180" rx="28" fill="#F7FBFC"/>
  <g transform="translate(26 18)">
    <g fill="#103F52">
      <rect x="54" y="0" width="16" height="26" rx="5"/>
      <rect x="95" y="11" width="16" height="26" rx="5" transform="rotate(30 95 11)"/>
      <rect x="121" y="44" width="16" height="26" rx="5" transform="rotate(60 121 44)"/>
      <rect x="126" y="88" width="16" height="26" rx="5" transform="rotate(90 126 88)"/>
      <rect x="112" y="129" width="16" height="26" rx="5" transform="rotate(120 112 129)"/>
      <rect x="77" y="156" width="16" height="26" rx="5" transform="rotate(150 77 156)"/>
      <rect x="34" y="162" width="16" height="26" rx="5" transform="rotate(180 34 162)"/>
      <rect x="-6" y="148" width="16" height="26" rx="5" transform="rotate(-150 -6 148)"/>
      <rect x="-31" y="115" width="16" height="26" rx="5" transform="rotate(-120 -31 115)"/>
      <rect x="-36" y="71" width="16" height="26" rx="5" transform="rotate(-90 -36 71)"/>
      <rect x="-22" y="30" width="16" height="26" rx="5" transform="rotate(-60 -22 30)"/>
      <rect x="13" y="3" width="16" height="26" rx="5" transform="rotate(-30 13 3)"/>
    </g>
    <circle cx="48" cy="72" r="56" stroke="#103F52" stroke-width="14"/>
    <rect x="-5" y="72" width="28" height="38" rx="4" fill="#2F88A4"/>
    <rect x="30" y="50" width="28" height="60" rx="4" fill="#2F88A4"/>
    <rect x="65" y="26" width="28" height="84" rx="4" fill="#2F88A4"/>
    <path d="M-34 97H4L16 78L29 120L47 54L62 116L77 94H130" stroke="#103F52" stroke-width="8" stroke-linecap="round" stroke-linejoin="round"/>
  </g>
  <text x="198" y="82" fill="#0F2732" font-family="'Segoe UI', Arial, sans-serif" font-size="74" font-weight="700">MechTrackPulse</text>
  <text x="204" y="132" fill="#2F88A4" font-family="'Segoe UI', Arial, sans-serif" font-size="30" font-weight="500" letter-spacing="1.8">Precision. Progress. Performance.</text>
</svg>
