<svg xmlns="http://www.w3.org/2000/svg" viewBox="0 0 128 128" role="img" aria-label="MechTrackPulse logo">
  <title>MechTrackPulse</title>
  <g fill="#103f52">
    <rect x="58" y="4" width="12" height="18" rx="4" />
    <rect x="58" y="4" width="12" height="18" rx="4" transform="rotate(30 64 64)" />
    <rect x="58" y="4" width="12" height="18" rx="4" transform="rotate(60 64 64)" />
    <rect x="58" y="4" width="12" height="18" rx="4" transform="rotate(90 64 64)" />
    <rect x="58" y="4" width="12" height="18" rx="4" transform="rotate(120 64 64)" />
    <rect x="58" y="4" width="12" height="18" rx="4" transform="rotate(150 64 64)" />
    <rect x="58" y="4" width="12" height="18" rx="4" transform="rotate(180 64 64)" />
    <rect x="58" y="4" width="12" height="18" rx="4" transform="rotate(210 64 64)" />
    <rect x="58" y="4" width="12" height="18" rx="4" transform="rotate(240 64 64)" />
    <rect x="58" y="4" width="12" height="18" rx="4" transform="rotate(270 64 64)" />
    <rect x="58" y="4" width="12" height="18" rx="4" transform="rotate(300 64 64)" />
    <rect x="58" y="4" width="12" height="18" rx="4" transform="rotate(330 64 64)" />
  </g>
  <circle cx="64" cy="64" r="42" fill="none" stroke="#103f52" stroke-width="12" />
  <g fill="#2f88a4">
    <rect x="34" y="62" width="12" height="26" rx="2.5" />
    <rect x="50" y="46" width="12" height="42" rx="2.5" />
    <rect x="66" y="30" width="12" height="58" rx="2.5" />
  </g>
  <path
    d="M18 86H46L54 72L62 101L74 52L84 97L94 84H112"
    fill="none"
    stroke="#103f52"
    stroke-width="7"
    stroke-linecap="round"
    stroke-linejoin="round"
  />
</svg>
